<mxfile host="app.diagrams.net" modified="2024-04-03T14:28:08.382Z" agent="Mozilla/5.0 (Windows NT 10.0; Win64; x64) AppleWebKit/537.36 (KHTML, like Gecko) Chrome/122.0.0.0 Safari/537.36 Edg/122.0.0.0" version="24.2.2" etag="PWh2tA0bMFDAZnueeK4i" type="github">
  <diagram name="Page-1" id="Zzp1IHmr5K-Hkkuu284D">
    <mxGraphModel>
      <root>
        <mxCell id="0" />
        <mxCell id="1" parent="0" />
      </root>
    </mxGraphModel>
  </diagram>
</mxfile>
